<svg width="61" height="53" viewBox="0 0 61 53" fill="none" xmlns="http://www.w3.org/2000/svg">
<path d="M29.1121 23.7638C15.3644 42.9072 0.702848 43.6607 0.684371 19.305C-2.27201 -12.569 18.1422 6.23338 28.9174 17.5872C46.5578 3.62746 58.7922 -9.0538 59.6876 19.3507C60.583 47.7552 49.1944 35.9886 29.1121 23.7638Z" fill="#12427A"/>
<path d="M15.3666 8.91119L18.0929 7.45653C25.3911 11.6611 28.2538 14.0236 28.9156 18.2559C28.9156 18.2559 28.5723 30.2832 27.009 26.3305C25.4457 22.3778 24.9334 12.4888 15.3666 8.91119Z" fill="#E78614"/>
<path d="M12.8395 44.0923H11.7315C11.6889 43.8556 11.6096 43.6473 11.4936 43.4673C11.3776 43.2874 11.2356 43.1347 11.0675 43.0092C10.8994 42.8838 10.7112 42.7891 10.5028 42.7251C10.2969 42.6612 10.0779 42.6293 9.84588 42.6293C9.42685 42.6293 9.05161 42.7346 8.72017 42.9453C8.3911 43.156 8.13068 43.465 7.93892 43.8722C7.74953 44.2794 7.65483 44.7765 7.65483 45.3636C7.65483 45.9555 7.74953 46.455 7.93892 46.8622C8.13068 47.2694 8.39228 47.5772 8.72372 47.7855C9.05516 47.9938 9.42803 48.098 9.84233 48.098C10.072 48.098 10.2898 48.0672 10.4957 48.0057C10.7041 47.9418 10.8923 47.8482 11.0604 47.7251C11.2285 47.602 11.3705 47.4517 11.4865 47.2741C11.6049 47.0942 11.6866 46.8883 11.7315 46.6562L12.8395 46.6598C12.7803 47.0173 12.6655 47.3464 12.495 47.647C12.3269 47.9453 12.1103 48.2034 11.8452 48.4212C11.5824 48.6366 11.2817 48.8035 10.9432 48.9219C10.6046 49.0402 10.2353 49.0994 9.83523 49.0994C9.20549 49.0994 8.64441 48.9503 8.15199 48.652C7.65956 48.3513 7.27131 47.9216 6.98722 47.3629C6.70549 46.8042 6.56463 46.1378 6.56463 45.3636C6.56463 44.5871 6.70668 43.9207 6.99077 43.3643C7.27486 42.8056 7.66312 42.3771 8.15554 42.0788C8.64796 41.7782 9.20786 41.6278 9.83523 41.6278C10.2211 41.6278 10.581 41.6835 10.9148 41.7947C11.2509 41.9036 11.5528 42.0646 11.8203 42.2777C12.0878 42.4884 12.3092 42.7464 12.4844 43.0518C12.6596 43.3549 12.7779 43.7017 12.8395 44.0923ZM14.0673 49V43.5455H15.0936V44.4119H15.1504C15.2498 44.1184 15.425 43.8875 15.676 43.7195C15.9293 43.549 16.2157 43.4638 16.5353 43.4638C16.6016 43.4638 16.6797 43.4661 16.7697 43.4709C16.862 43.4756 16.9342 43.4815 16.9863 43.4886V44.5043C16.9437 44.4924 16.868 44.4794 16.7591 44.4652C16.6502 44.4486 16.5413 44.4403 16.4324 44.4403C16.1814 44.4403 15.9577 44.4936 15.7612 44.6001C15.5671 44.7043 15.4132 44.8499 15.2995 45.0369C15.1859 45.2216 15.1291 45.4323 15.1291 45.669V49H14.0673ZM19.4437 49.1207C19.0981 49.1207 18.7856 49.0568 18.5062 48.929C18.2269 48.7988 18.0055 48.6106 17.8422 48.3643C17.6812 48.1181 17.6007 47.8163 17.6007 47.4588C17.6007 47.151 17.6599 46.8977 17.7782 46.6989C17.8966 46.5 18.0564 46.3426 18.2576 46.2266C18.4589 46.1106 18.6838 46.023 18.9324 45.9638C19.1809 45.9046 19.4342 45.8596 19.6923 45.8288C20.019 45.791 20.2842 45.7602 20.4877 45.7365C20.6913 45.7105 20.8393 45.669 20.9316 45.6122C21.024 45.5554 21.0701 45.4631 21.0701 45.3352V45.3104C21.0701 45.0002 20.9825 44.7599 20.8074 44.5895C20.6345 44.419 20.3765 44.3338 20.0332 44.3338C19.6757 44.3338 19.394 44.4131 19.188 44.5717C18.9844 44.728 18.8436 44.902 18.7654 45.0938L17.7676 44.8665C17.8859 44.535 18.0588 44.2675 18.286 44.0639C18.5157 43.858 18.7797 43.7088 19.0779 43.6165C19.3762 43.5218 19.6899 43.4744 20.019 43.4744C20.2368 43.4744 20.4676 43.5005 20.7115 43.5526C20.9577 43.6023 21.1873 43.6946 21.4004 43.8295C21.6158 43.9645 21.7922 44.1574 21.9295 44.4084C22.0668 44.657 22.1355 44.9801 22.1355 45.3778V49H21.0985V48.2543H21.0559C20.9873 48.3916 20.8843 48.5265 20.747 48.6591C20.6097 48.7917 20.4333 48.9018 20.2179 48.9893C20.0024 49.0769 19.7444 49.1207 19.4437 49.1207ZM19.6745 48.2685C19.9681 48.2685 20.219 48.2105 20.4274 48.0945C20.6381 47.9785 20.7979 47.8269 20.9068 47.6399C21.0181 47.4505 21.0737 47.2481 21.0737 47.0327V46.3295C21.0358 46.3674 20.9624 46.4029 20.8535 46.4361C20.747 46.4669 20.6251 46.4941 20.4877 46.5178C20.3504 46.5391 20.2167 46.5592 20.0865 46.5781C19.9563 46.5947 19.8474 46.6089 19.7598 46.6207C19.5538 46.6468 19.3656 46.6906 19.1951 46.7521C19.027 46.8137 18.8921 46.9025 18.7903 47.0185C18.6909 47.1321 18.6412 47.2836 18.6412 47.473C18.6412 47.7358 18.7382 47.9347 18.9324 48.0696C19.1265 48.2022 19.3739 48.2685 19.6745 48.2685ZM26.1456 43.5455V44.3977H23.0632V43.5455H26.1456ZM23.9084 49V42.9134C23.9084 42.5724 23.983 42.2895 24.1321 42.0646C24.2813 41.8374 24.4789 41.6681 24.7251 41.5568C24.9714 41.4432 25.2389 41.3864 25.5277 41.3864C25.7408 41.3864 25.9231 41.4041 26.0746 41.4396C26.2261 41.4728 26.3385 41.5036 26.4119 41.532L26.1634 42.3913C26.1136 42.3771 26.0497 42.3606 25.9716 42.3416C25.8935 42.3203 25.7988 42.3097 25.6875 42.3097C25.4295 42.3097 25.2448 42.3736 25.1335 42.5014C25.0246 42.6293 24.9702 42.8139 24.9702 43.0554V49H23.9084ZM29.7873 43.5455V44.3977H26.8079V43.5455H29.7873ZM27.6069 42.2386H28.6687V47.3984C28.6687 47.6044 28.6995 47.7595 28.761 47.8636C28.8226 47.9654 28.9019 48.0353 28.9989 48.0732C29.0984 48.1087 29.2061 48.1264 29.3221 48.1264C29.4073 48.1264 29.4819 48.1205 29.5458 48.1087C29.6097 48.0968 29.6594 48.0874 29.695 48.0803L29.8867 48.9574C29.8252 48.9811 29.7376 49.0047 29.6239 49.0284C29.5103 49.0545 29.3683 49.0687 29.1978 49.071C28.9184 49.0758 28.658 49.026 28.4165 48.9219C28.1751 48.8177 27.9798 48.6567 27.8306 48.4389C27.6815 48.2211 27.6069 47.9477 27.6069 47.6186V42.2386ZM30.9618 49V43.5455H32.0236V49H30.9618ZM31.498 42.7038C31.3134 42.7038 31.1548 42.6423 31.0222 42.5192C30.892 42.3937 30.8269 42.2446 30.8269 42.0717C30.8269 41.8965 30.892 41.7474 31.0222 41.6243C31.1548 41.4988 31.3134 41.4361 31.498 41.4361C31.6827 41.4361 31.8401 41.4988 31.9703 41.6243C32.1029 41.7474 32.1692 41.8965 32.1692 42.0717C32.1692 42.2446 32.1029 42.3937 31.9703 42.5192C31.8401 42.6423 31.6827 42.7038 31.498 42.7038ZM33.4521 49V43.5455H34.4712V44.4332H34.5387C34.6523 44.1326 34.8382 43.8982 35.0962 43.7301C35.3543 43.5597 35.6632 43.4744 36.0231 43.4744C36.3877 43.4744 36.6931 43.5597 36.9393 43.7301C37.1879 43.9006 37.3713 44.1349 37.4897 44.4332H37.5465C37.6767 44.142 37.8839 43.91 38.168 43.7372C38.4521 43.562 38.7906 43.4744 39.1836 43.4744C39.6784 43.4744 40.082 43.6295 40.3945 43.9396C40.7094 44.2498 40.8668 44.7173 40.8668 45.3423V49H39.805V45.4418C39.805 45.0724 39.7044 44.8049 39.5032 44.6392C39.302 44.4735 39.0617 44.3906 38.7823 44.3906C38.4367 44.3906 38.168 44.4972 37.9762 44.7102C37.7844 44.9209 37.6886 45.192 37.6886 45.5234V49H36.6303V45.3743C36.6303 45.0784 36.538 44.8404 36.3533 44.6605C36.1687 44.4806 35.9284 44.3906 35.6325 44.3906C35.4312 44.3906 35.2454 44.4439 35.0749 44.5504C34.9068 44.6546 34.7707 44.8002 34.6665 44.9872C34.5647 45.1742 34.5138 45.3909 34.5138 45.6371V49H33.4521ZM42.29 49V43.5455H43.3517V49H42.29ZM42.8262 42.7038C42.6415 42.7038 42.4829 42.6423 42.3503 42.5192C42.2201 42.3937 42.155 42.2446 42.155 42.0717C42.155 41.8965 42.2201 41.7474 42.3503 41.6243C42.4829 41.4988 42.6415 41.4361 42.8262 41.4361C43.0108 41.4361 43.1683 41.4988 43.2985 41.6243C43.431 41.7474 43.4973 41.8965 43.4973 42.0717C43.4973 42.2446 43.431 42.3937 43.2985 42.5192C43.1683 42.6423 43.0108 42.7038 42.8262 42.7038ZM47.3263 43.5455V44.3977H44.3469V43.5455H47.3263ZM45.146 42.2386H46.2077V47.3984C46.2077 47.6044 46.2385 47.7595 46.3001 47.8636C46.3616 47.9654 46.4409 48.0353 46.538 48.0732C46.6374 48.1087 46.7451 48.1264 46.8612 48.1264C46.9464 48.1264 47.021 48.1205 47.0849 48.1087C47.1488 48.0968 47.1985 48.0874 47.234 48.0803L47.4258 48.9574C47.3642 48.9811 47.2766 49.0047 47.163 49.0284C47.0494 49.0545 46.9073 49.0687 46.7369 49.071C46.4575 49.0758 46.1971 49.026 45.9556 48.9219C45.7141 48.8177 45.5188 48.6567 45.3697 48.4389C45.2205 48.2211 45.146 47.9477 45.146 47.6186V42.2386ZM49.1721 51.0455C49.0134 51.0455 48.869 51.0324 48.7388 51.0064C48.6086 50.9827 48.5115 50.9567 48.4476 50.9283L48.7033 50.0582C48.8974 50.1103 49.0703 50.1328 49.2218 50.1257C49.3733 50.1186 49.507 50.0618 49.623 49.9553C49.7414 49.8487 49.8456 49.6747 49.9355 49.4332L50.0669 49.071L48.0712 43.5455H49.2076L50.589 47.7784H50.6458L52.0272 43.5455H53.1671L50.9192 49.728C50.815 50.0121 50.6825 50.2524 50.5215 50.4489C50.3605 50.6477 50.1687 50.7969 49.9462 50.8963C49.7237 50.9957 49.4656 51.0455 49.1721 51.0455Z" fill="#12427A"/>
</svg>
