<svg width="99" height="27" viewBox="0 0 99 27" fill="none" xmlns="http://www.w3.org/2000/svg">
<path d="M20.299 16.5699C10.7131 29.918 0.490029 30.4434 0.477147 13.4609C-1.58425 -8.76399 12.65 4.34636 20.1633 12.2631C32.4635 2.52933 40.9942 -6.31297 41.6185 13.4927C42.2428 33.2984 34.3019 25.0939 20.299 16.5699Z" fill="#12427A"/>
<path d="M10.7148 5.77263L12.6158 4.75834C17.7046 7.69004 19.7007 9.33737 20.1622 12.2884C20.1622 12.2884 19.9228 20.6747 18.8328 17.9186C17.7427 15.1625 17.3855 8.26718 10.7148 5.77263Z" fill="#E78614"/>
<path d="M55.7102 12.5455H53.3068C53.2898 12.3466 53.2443 12.1662 53.1705 12.0043C53.0994 11.8423 53 11.7031 52.8722 11.5866C52.7472 11.4673 52.5952 11.3764 52.4162 11.3139C52.2372 11.2486 52.0341 11.2159 51.8068 11.2159C51.4091 11.2159 51.0724 11.3125 50.7969 11.5057C50.5241 11.6989 50.3168 11.9759 50.1747 12.3366C50.0355 12.6974 49.9659 13.1307 49.9659 13.6364C49.9659 14.1705 50.0369 14.6179 50.179 14.9787C50.3239 15.3366 50.5327 15.6065 50.8054 15.7884C51.0781 15.9673 51.4063 16.0568 51.7898 16.0568C52.0085 16.0568 52.2045 16.0298 52.3778 15.9759C52.5511 15.919 52.7017 15.8381 52.8295 15.733C52.9574 15.6278 53.0611 15.5014 53.1406 15.3537C53.223 15.2031 53.2784 15.0341 53.3068 14.8466L55.7102 14.8636C55.6818 15.233 55.5781 15.6094 55.3991 15.9929C55.2202 16.3736 54.9659 16.7259 54.6364 17.0497C54.3097 17.3707 53.9048 17.6293 53.4219 17.8253C52.9389 18.0213 52.3778 18.1193 51.7386 18.1193C50.9375 18.1193 50.2188 17.9474 49.5824 17.6037C48.9489 17.2599 48.4474 16.7543 48.0781 16.0866C47.7116 15.419 47.5284 14.6023 47.5284 13.6364C47.5284 12.6648 47.7159 11.8466 48.0909 11.1818C48.4659 10.5142 48.9716 10.0099 49.608 9.66903C50.2443 9.32528 50.9545 9.15341 51.7386 9.15341C52.2898 9.15341 52.7969 9.22869 53.2599 9.37926C53.723 9.52983 54.1293 9.75 54.4787 10.0398C54.8281 10.3267 55.1094 10.6804 55.3224 11.1009C55.5355 11.5213 55.6648 12.0028 55.7102 12.5455ZM59.9727 18.1193C59.2624 18.1193 58.6545 17.9787 58.1488 17.6974C57.6431 17.4134 57.2553 17.0185 56.9854 16.5128C56.7156 16.0043 56.5806 15.4148 56.5806 14.7443C56.5806 14.0739 56.7156 13.4858 56.9854 12.9801C57.2553 12.4716 57.6431 12.0767 58.1488 11.7955C58.6545 11.5114 59.2624 11.3693 59.9727 11.3693C60.6829 11.3693 61.2908 11.5114 61.7965 11.7955C62.3022 12.0767 62.69 12.4716 62.9599 12.9801C63.2298 13.4858 63.3647 14.0739 63.3647 14.7443C63.3647 15.4148 63.2298 16.0043 62.9599 16.5128C62.69 17.0185 62.3022 17.4134 61.7965 17.6974C61.2908 17.9787 60.6829 18.1193 59.9727 18.1193ZM59.9897 16.3807C60.1886 16.3807 60.3604 16.3139 60.5053 16.1804C60.6502 16.0469 60.7624 15.8565 60.842 15.6094C60.9215 15.3622 60.9613 15.0682 60.9613 14.7273C60.9613 14.3835 60.9215 14.0895 60.842 13.8452C60.7624 13.598 60.6502 13.4077 60.5053 13.2741C60.3604 13.1406 60.1886 13.0739 59.9897 13.0739C59.7795 13.0739 59.5991 13.1406 59.4485 13.2741C59.2979 13.4077 59.1829 13.598 59.1033 13.8452C59.0238 14.0895 58.984 14.3835 58.984 14.7273C58.984 15.0682 59.0238 15.3622 59.1033 15.6094C59.1829 15.8565 59.2979 16.0469 59.4485 16.1804C59.5991 16.3139 59.7795 16.3807 59.9897 16.3807ZM66.6715 14.3182V18H64.3192V11.4545H66.5522V12.6989H66.6204C66.7624 12.2841 67.0124 11.9588 67.3704 11.723C67.7312 11.4872 68.1516 11.3693 68.6317 11.3693C69.0948 11.3693 69.4968 11.4759 69.8377 11.6889C70.1815 11.8991 70.4471 12.1889 70.6346 12.5582C70.8249 12.9276 70.9187 13.3494 70.9158 13.8239V18H68.5636V14.3182C68.5664 13.9943 68.484 13.7401 68.3164 13.5554C68.1516 13.3707 67.9215 13.2784 67.6261 13.2784C67.4329 13.2784 67.2638 13.321 67.119 13.4062C66.9769 13.4886 66.8675 13.608 66.7908 13.7642C66.7141 13.9176 66.6744 14.1023 66.6715 14.3182ZM74.4293 14.3182V18H72.0771V9.27273H74.3441V12.6989H74.4123C74.56 12.2812 74.8058 11.956 75.1495 11.723C75.4933 11.4872 75.9066 11.3693 76.3896 11.3693C76.8526 11.3693 77.2546 11.4744 77.5955 11.6847C77.9393 11.8949 78.2049 12.1847 78.3924 12.554C78.5827 12.9233 78.6765 13.3466 78.6737 13.8239V18H76.3214V14.3182C76.3242 13.9943 76.2433 13.7401 76.0785 13.5554C75.9165 13.3707 75.685 13.2784 75.3839 13.2784C75.1935 13.2784 75.0259 13.321 74.881 13.4062C74.739 13.4886 74.6282 13.608 74.5487 13.7642C74.4719 13.9176 74.4322 14.1023 74.4293 14.3182ZM82.9712 18.1193C82.2724 18.1193 81.6701 17.9858 81.1644 17.7188C80.6616 17.4489 80.2738 17.0625 80.0011 16.5597C79.7312 16.054 79.5962 15.4489 79.5962 14.7443C79.5962 14.0682 79.7326 13.4773 80.0053 12.9716C80.2781 12.4659 80.663 12.0724 81.1602 11.7912C81.6573 11.5099 82.244 11.3693 82.9201 11.3693C83.4144 11.3693 83.8619 11.446 84.2624 11.5994C84.663 11.7528 85.0053 11.9759 85.2894 12.2685C85.5735 12.5582 85.7923 12.9105 85.9457 13.3253C86.0991 13.7401 86.1758 14.2074 86.1758 14.7273V15.2727H80.3292V13.9773H84.011C84.0082 13.7898 83.9599 13.625 83.8661 13.483C83.7752 13.3381 83.6516 13.2259 83.4954 13.1463C83.342 13.0639 83.1673 13.0227 82.9712 13.0227C82.7809 13.0227 82.6062 13.0639 82.4471 13.1463C82.288 13.2259 82.1602 13.3366 82.0636 13.4787C81.9698 13.6207 81.9201 13.7869 81.9144 13.9773V15.375C81.9144 15.5852 81.9585 15.7727 82.0465 15.9375C82.1346 16.1023 82.261 16.2315 82.4258 16.3253C82.5906 16.419 82.7894 16.4659 83.0224 16.4659C83.1843 16.4659 83.332 16.4432 83.4656 16.3977C83.6019 16.3523 83.7184 16.2869 83.815 16.2017C83.9116 16.1136 83.9826 16.0085 84.0281 15.8864H86.1758C86.1019 16.3409 85.9272 16.7358 85.6516 17.071C85.3761 17.4034 85.011 17.6619 84.5565 17.8466C84.1048 18.0284 83.5763 18.1193 82.9712 18.1193ZM90.2891 18.1193C89.5788 18.1193 88.9709 17.9787 88.4652 17.6974C87.9595 17.4134 87.5717 17.0185 87.3018 16.5128C87.032 16.0043 86.897 15.4148 86.897 14.7443C86.897 14.0739 87.032 13.4858 87.3018 12.9801C87.5717 12.4716 87.9595 12.0767 88.4652 11.7955C88.9709 11.5114 89.5788 11.3693 90.2891 11.3693C90.9311 11.3693 91.4865 11.4858 91.9553 11.7188C92.4268 11.9489 92.7919 12.2756 93.0504 12.6989C93.3089 13.1193 93.4396 13.6136 93.4425 14.1818H91.2607C91.2294 13.8381 91.13 13.5767 90.9624 13.3977C90.7976 13.2159 90.5845 13.125 90.3232 13.125C90.1186 13.125 89.9396 13.1847 89.7862 13.304C89.6328 13.4205 89.5135 13.598 89.4283 13.8366C89.343 14.0724 89.3004 14.3693 89.3004 14.7273C89.3004 15.0852 89.343 15.3835 89.4283 15.6222C89.5135 15.858 89.6328 16.0355 89.7862 16.1548C89.9396 16.2713 90.1186 16.3295 90.3232 16.3295C90.4964 16.3295 90.6499 16.2898 90.7834 16.2102C90.9169 16.1278 91.0249 16.0085 91.1072 15.8523C91.1925 15.6932 91.2436 15.5 91.2607 15.2727H93.4425C93.4339 15.8494 93.3018 16.3523 93.0462 16.7812C92.7905 17.2074 92.4283 17.5369 91.9595 17.7699C91.4936 18.0028 90.9368 18.1193 90.2891 18.1193ZM98.3164 11.4545V13.1591H94.0039V11.4545H98.3164ZM94.8391 9.88636H97.1914V15.8949C97.1914 15.9858 97.207 16.0625 97.2383 16.125C97.2695 16.1847 97.3178 16.2301 97.3832 16.2614C97.4485 16.2898 97.5323 16.304 97.6346 16.304C97.7056 16.304 97.788 16.2955 97.8817 16.2784C97.9783 16.2614 98.0494 16.2472 98.0948 16.2358L98.4357 17.8892C98.3306 17.9205 98.18 17.9588 97.984 18.0043C97.7908 18.0497 97.5607 18.0795 97.2937 18.0938C96.7539 18.1222 96.3008 18.0668 95.9343 17.9276C95.5678 17.7855 95.2923 17.5625 95.1076 17.2585C94.9229 16.9545 94.8335 16.5739 94.8391 16.1165V9.88636Z" fill="#12427A"/>
</svg>
