<svg width="92" height="59" viewBox="0 0 92 59" fill="none" xmlns="http://www.w3.org/2000/svg">
<path d="M44.4643 36.2959C23.4666 65.5347 1.07315 66.6856 1.04493 29.4857C-3.47052 -19.1973 27.7094 9.5206 44.1669 26.862C71.1102 5.54044 89.7965 -13.8284 91.1641 29.5555C92.5317 72.9394 75.1372 54.9676 44.4643 36.2959Z" fill="white"/>
<path d="M45.9501 25.2766C46.0695 25.6044 45.9688 25.9698 45.7114 26.2034L44.0963 27.6878C44.1373 28.0005 44.1597 28.3207 44.1597 28.6447C44.1597 28.9687 44.1373 29.289 44.0963 29.6017L45.7114 31.0861C45.9688 31.3196 46.0695 31.6851 45.9501 32.0129C45.786 32.4612 45.5883 32.8907 45.3608 33.3051L45.1855 33.6103C44.9393 34.0247 44.6633 34.4165 44.3611 34.7857C44.1411 35.057 43.7755 35.1474 43.4473 35.0419L41.3697 34.3751C40.8699 34.7631 40.3178 35.0871 39.7285 35.332L39.2622 37.4832C39.1876 37.8261 38.9265 38.0973 38.5834 38.1539C38.0686 38.2405 37.539 38.2857 36.9981 38.2857C36.4573 38.2857 35.9276 38.2405 35.4129 38.1539C35.0697 38.0973 34.8086 37.8261 34.734 37.4832L34.2678 35.332C33.6784 35.0871 33.1264 34.7631 32.6266 34.3751L30.5527 35.0457C30.2245 35.1512 29.8589 35.057 29.6389 34.7895C29.3367 34.4203 29.0607 34.0285 28.8145 33.614L28.6392 33.3089C28.4117 32.8945 28.214 32.465 28.0499 32.0166C27.9305 31.6889 28.0312 31.3234 28.2886 31.0898L29.9037 29.6054C29.8627 29.289 29.8403 28.9687 29.8403 28.6447C29.8403 28.3207 29.8627 28.0005 29.9037 27.6878L28.2886 26.2034C28.0312 25.9698 27.9305 25.6044 28.0499 25.2766C28.214 24.8283 28.4117 24.3988 28.6392 23.9844L28.8145 23.6792C29.0607 23.2648 29.3367 22.873 29.6389 22.5038C29.8589 22.2325 30.2245 22.1421 30.5527 22.2476L32.6303 22.9144C33.1301 22.5264 33.6822 22.2024 34.2715 21.9575L34.7378 19.8062C34.8124 19.4634 35.0735 19.1921 35.4166 19.1356C35.9314 19.0452 36.461 19 37.0019 19C37.5427 19 38.0724 19.0452 38.5871 19.1319C38.9303 19.1884 39.1914 19.4596 39.266 19.8025L39.7322 21.9537C40.3216 22.1986 40.8736 22.5226 41.3734 22.9106L43.451 22.2438C43.7793 22.1383 44.1448 22.2325 44.3649 22.5C44.667 22.8692 44.943 23.261 45.1892 23.6754L45.3645 23.9806C45.592 24.395 45.7897 24.8245 45.9538 25.2728L45.9501 25.2766ZM37.0019 31.6587C37.7933 31.6587 38.5523 31.3412 39.1119 30.7759C39.6715 30.2107 39.9859 29.4441 39.9859 28.6447C39.9859 27.8454 39.6715 27.0788 39.1119 26.5135C38.5523 25.9483 37.7933 25.6308 37.0019 25.6308C36.2105 25.6308 35.4515 25.9483 34.8919 26.5135C34.3323 27.0788 34.0179 27.8454 34.0179 28.6447C34.0179 29.4441 34.3323 30.2107 34.8919 30.7759C35.4515 31.3412 36.2105 31.6587 37.0019 31.6587Z" fill="#E78614"/>
</svg>
