<?xml version="1.0" encoding="UTF-8"?>
<!DOCTYPE svg PUBLIC "-//W3C//DTD SVG 1.1//EN" "http://www.w3.org/Graphics/SVG/1.1/DTD/svg11.dtd">
<svg xmlns="http://www.w3.org/2000/svg" version="1.1" width="500px" height="500px" style="shape-rendering:geometricPrecision; text-rendering:geometricPrecision; image-rendering:optimizeQuality; fill-rule:evenodd; clip-rule:evenodd" xmlns:xlink="http://www.w3.org/1999/xlink">
<g><path style="opacity:0.967" fill="#121212" d="M 233.5,-0.5 C 244.833,-0.5 256.167,-0.5 267.5,-0.5C 330.772,5.47379 384.772,30.8071 429.5,75.5C 430.08,77.7488 431.413,79.4154 433.5,80.5C 466.473,115.779 487.306,157.446 496,205.5C 497.422,213.948 498.588,222.282 499.5,230.5C 499.5,243.167 499.5,255.833 499.5,268.5C 490.166,353.707 449.5,419.207 377.5,465C 342.992,484.894 305.992,496.394 266.5,499.5C 255.5,499.5 244.5,499.5 233.5,499.5C 199.04,497.051 166.374,488.051 135.5,472.5C 135.027,471.094 134.027,470.427 132.5,470.5C 128.345,469.258 124.678,467.258 121.5,464.5C 121.027,463.094 120.027,462.427 118.5,462.5C 117.508,462.672 116.842,462.338 116.5,461.5C 116.027,460.094 115.027,459.427 113.5,459.5C 112.29,459.068 111.29,458.401 110.5,457.5C 110.027,456.094 109.027,455.427 107.5,455.5C 106.738,453.738 105.404,452.738 103.5,452.5C 99.9485,450.889 96.9485,448.556 94.5,445.5C 94.0269,444.094 93.0269,443.427 91.5,443.5C 87.5442,441.212 84.2109,438.212 81.5,434.5C 80.0892,432.086 78.0892,430.419 75.5,429.5C 30.5483,385.256 5.21498,331.59 -0.5,268.5C -0.5,255.833 -0.5,243.167 -0.5,230.5C 0.348322,218.414 2.34832,206.414 5.5,194.5C 7.03954,192.162 7.70621,189.495 7.5,186.5C 8.92381,184.485 9.59047,182.152 9.5,179.5C 19.8475,141.56 38.5141,108.56 65.5,80.5C 68.5725,78.4309 70.9059,75.7642 72.5,72.5C 75.7642,70.9059 78.4309,68.5725 80.5,65.5C 115.774,32.5293 157.441,11.696 205.5,3C 214.944,1.50011 224.277,0.333446 233.5,-0.5 Z M 282.5,14.5 C 285.974,15.5249 289.64,16.1916 293.5,16.5C 297.426,17.5515 301.426,18.2182 305.5,18.5C 307.515,19.9238 309.848,20.5905 312.5,20.5C 314.599,21.6118 316.933,22.2785 319.5,22.5C 321.214,23.7384 323.214,24.405 325.5,24.5C 336.098,29.1281 346.765,33.7947 357.5,38.5C 358.911,40.539 360.911,41.539 363.5,41.5C 365.663,43.0828 367.996,44.4161 370.5,45.5C 370.973,46.9063 371.973,47.573 373.5,47.5C 373.842,48.3382 374.508,48.6716 375.5,48.5C 375.973,49.9063 376.973,50.573 378.5,50.5C 381.32,52.7451 384.32,54.7451 387.5,56.5C 387.973,57.9063 388.973,58.573 390.5,58.5C 391.262,60.2624 392.596,61.2624 394.5,61.5C 395.585,63.5869 397.251,64.9202 399.5,65.5C 400.5,67.1667 401.833,68.5 403.5,69.5C 403.973,70.9063 404.973,71.573 406.5,71.5C 442.515,104.161 466.848,144.161 479.5,191.5C 481.184,200.29 482.851,208.957 484.5,217.5C 484.423,221.215 484.756,224.881 485.5,228.5C 486.75,243.165 486.75,257.831 485.5,272.5C 484.091,281.022 482.757,289.688 481.5,298.5C 480.191,303.074 479.191,307.74 478.5,312.5C 477.076,314.515 476.41,316.848 476.5,319.5C 475.262,321.214 474.595,323.214 474.5,325.5C 470.539,334.765 466.539,344.099 462.5,353.5C 460.896,354.287 460.229,355.62 460.5,357.5C 458.896,358.287 458.229,359.62 458.5,361.5C 456.182,365.465 453.848,369.465 451.5,373.5C 449.75,374.659 448.75,376.326 448.5,378.5C 447.094,378.973 446.427,379.973 446.5,381.5C 445.094,381.973 444.427,382.973 444.5,384.5C 443.094,384.973 442.427,385.973 442.5,387.5C 440.738,388.262 439.738,389.596 439.5,391.5C 437.413,392.585 436.08,394.251 435.5,396.5C 433.738,397.262 432.738,398.596 432.5,400.5C 431.5,400.833 430.833,401.5 430.5,402.5C 428.738,403.262 427.738,404.596 427.5,406.5C 417.256,416.954 406.59,426.954 395.5,436.5C 393.251,437.08 391.585,438.413 390.5,440.5C 359.634,462.755 325.301,477.089 287.5,483.5C 271.577,485.561 255.577,486.561 239.5,486.5C 231.675,485.508 223.675,484.841 215.5,484.5C 210.647,483.396 205.647,482.396 200.5,481.5C 170.558,475.023 142.892,463.357 117.5,446.5C 116.564,445.026 115.23,444.026 113.5,443.5C 113.027,442.094 112.027,441.427 110.5,441.5C 109.564,440.026 108.23,439.026 106.5,438.5C 105.421,436.457 103.754,435.124 101.5,434.5C 100.738,432.738 99.4044,431.738 97.5,431.5C 97.1667,430.5 96.5,429.833 95.5,429.5C 94.4154,427.413 92.7488,426.08 90.5,425.5C 86.5,420.833 82.1667,416.5 77.5,412.5C 75.5698,408.9 72.9031,405.9 69.5,403.5C 68.5806,400.911 66.914,398.911 64.5,397.5C 63.9202,395.251 62.5869,393.585 60.5,392.5C 60.2624,390.596 59.2624,389.262 57.5,388.5C 57.573,386.973 56.9063,385.973 55.5,385.5C 55.573,383.973 54.9063,382.973 53.5,382.5C 53.573,380.973 52.9063,379.973 51.5,379.5C 51.573,377.973 50.9063,376.973 49.5,376.5C 49.573,374.973 48.9063,373.973 47.5,373.5C 47.6716,372.508 47.3382,371.842 46.5,371.5C 46.573,369.973 45.9063,368.973 44.5,368.5C 44.3404,366.847 43.6737,365.514 42.5,364.5C 42.573,362.973 41.9063,361.973 40.5,361.5C 40.2064,358.246 38.873,355.579 36.5,353.5C 35.7729,351.046 34.7729,348.713 33.5,346.5C 33.3404,344.847 32.6737,343.514 31.5,342.5C 30.3611,339.082 29.0277,335.749 27.5,332.5C 27.0652,329.843 26.0652,327.509 24.5,325.5C 24.405,323.214 23.7384,321.214 22.5,319.5C 22.5905,316.848 21.9238,314.515 20.5,312.5C 20.1015,307.588 19.1015,302.921 17.5,298.5C 16.2426,289.688 14.9093,281.022 13.5,272.5C 12.2616,257.831 12.2616,243.164 13.5,228.5C 13.5,227.833 13.5,227.167 13.5,226.5C 15.3813,213.218 17.7147,199.885 20.5,186.5C 31.9276,147.633 51.5942,113.633 79.5,84.5C 80.8333,83.8333 81.8333,82.8333 82.5,81.5C 112.247,52.4836 147.247,32.1503 187.5,20.5C 196.951,18.4859 206.284,16.4859 215.5,14.5C 226.321,13.7152 237.155,13.0485 248,12.5C 259.508,13.1006 271.008,13.7673 282.5,14.5 Z M 263.5,128.5 C 265.302,129.458 267.302,130.125 269.5,130.5C 273.5,132.167 277.5,133.833 281.5,135.5C 281.973,136.906 282.973,137.573 284.5,137.5C 287.167,140.833 290.167,143.833 293.5,146.5C 298.545,153.587 302.212,161.254 304.5,169.5C 304.674,176.535 304.341,183.535 303.5,190.5C 301.777,195.613 299.777,200.613 297.5,205.5C 295.738,206.262 294.738,207.596 294.5,209.5C 290.833,212.5 287.5,215.833 284.5,219.5C 282.973,219.427 281.973,220.094 281.5,221.5C 279.77,222.026 278.436,223.026 277.5,224.5C 274.561,226.703 272.895,229.703 272.5,233.5C 273.028,235.336 273.694,237.003 274.5,238.5C 274.5,238.833 274.5,239.167 274.5,239.5C 274.427,241.027 275.094,242.027 276.5,242.5C 277.262,244.262 278.596,245.262 280.5,245.5C 283.979,247.403 287.646,249.07 291.5,250.5C 291.973,251.906 292.973,252.573 294.5,252.5C 314.313,265.496 328.479,283.162 337,305.5C 340.012,313.034 342.512,320.701 344.5,328.5C 344.813,331.247 344.48,333.914 343.5,336.5C 340.689,337.08 338.023,337.746 335.5,338.5C 323.321,339.13 311.321,340.13 299.5,341.5C 283.993,341.469 268.493,341.802 253,342.5C 247.784,342.494 242.951,341.827 238.5,340.5C 240.806,336.915 242.139,332.915 242.5,328.5C 243.887,326.123 244.721,323.457 245,320.5C 245.819,314.319 245.653,308.319 244.5,302.5C 244.26,297.88 243.26,293.547 241.5,289.5C 240.679,285.873 239.346,282.54 237.5,279.5C 237.573,277.973 236.906,276.973 235.5,276.5C 235.672,275.508 235.338,274.842 234.5,274.5C 234.573,272.973 233.906,271.973 232.5,271.5C 232.573,269.973 231.906,268.973 230.5,268.5C 229.92,266.251 228.587,264.585 226.5,263.5C 226.262,261.596 225.262,260.262 223.5,259.5C 220.853,257.189 218.186,254.856 215.5,252.5C 220.681,249.117 226.014,246.117 231.5,243.5C 232.906,243.027 233.573,242.027 233.5,240.5C 236.09,236.196 236.09,231.863 233.5,227.5C 231.706,224.255 229.039,221.921 225.5,220.5C 225.167,219.5 224.5,218.833 223.5,218.5C 213.88,210.91 207.546,201.244 204.5,189.5C 204.327,180.805 204.66,172.138 205.5,163.5C 210.596,149.401 219.929,139.068 233.5,132.5C 236.018,131.736 238.351,130.736 240.5,129.5C 248.132,128.642 255.799,128.309 263.5,128.5 Z M 197.5,277.5 C 200.167,280.833 203.167,283.833 206.5,286.5C 207.263,288.368 208.263,290.035 209.5,291.5C 211.149,294.456 212.483,297.456 213.5,300.5C 213.739,304.842 214.073,309.176 214.5,313.5C 213.475,316.974 212.808,320.64 212.5,324.5C 211.662,324.842 211.328,325.508 211.5,326.5C 208.508,331.162 205.508,335.828 202.5,340.5C 201.167,341.167 200.167,342.167 199.5,343.5C 197.596,343.738 196.262,344.738 195.5,346.5C 191.978,348.426 188.312,350.093 184.5,351.5C 177.543,352.386 170.543,352.72 163.5,352.5C 159.576,350.853 155.576,349.186 151.5,347.5C 151.027,346.094 150.027,345.427 148.5,345.5C 148.167,344.5 147.5,343.833 146.5,343.5C 144.5,340.833 142.167,338.5 139.5,336.5C 139.262,334.596 138.262,333.262 136.5,332.5C 129.587,317.625 129.92,302.958 137.5,288.5C 138.906,288.027 139.573,287.027 139.5,285.5C 142.631,282.871 145.631,280.038 148.5,277C 151.767,274.87 155.1,273.037 158.5,271.5C 172.416,267.916 185.416,269.916 197.5,277.5 Z"/></g>
<g><path style="opacity:0.4" fill="#6f6f6f" d="M 282.5,14.5 C 286.489,14.1164 290.155,14.783 293.5,16.5C 289.64,16.1916 285.974,15.5249 282.5,14.5 Z"/></g>
<g><path style="opacity:0.106" fill="#898989" d="M 215.5,14.5 C 206.284,16.4859 196.951,18.4859 187.5,20.5C 190.503,18.7383 193.837,17.5717 197.5,17C 203.419,15.5194 209.419,14.6861 215.5,14.5 Z"/></g>
<g><path style="opacity:0.176" fill="#727272" d="M 305.5,18.5 C 308.152,18.4095 310.485,19.0762 312.5,20.5C 309.848,20.5905 307.515,19.9238 305.5,18.5 Z"/></g>
<g><path style="opacity:0.529" fill="#575757" d="M 312.5,20.5 C 315.228,20.1706 317.562,20.8372 319.5,22.5C 316.933,22.2785 314.599,21.6118 312.5,20.5 Z"/></g>
<g><path style="opacity:0.431" fill="#585858" d="M 319.5,22.5 C 321.898,22.2594 323.898,22.9261 325.5,24.5C 323.214,24.405 321.214,23.7384 319.5,22.5 Z"/></g>
<g><path style="opacity:0.082" fill="#cbcbcb" d="M 357.5,38.5 C 359.819,38.9925 361.819,39.9925 363.5,41.5C 360.911,41.539 358.911,40.539 357.5,38.5 Z"/></g>
<g><path style="opacity:0.165" fill="#a4a4a4" d="M 370.5,45.5 C 372.027,45.427 373.027,46.0937 373.5,47.5C 371.973,47.573 370.973,46.9063 370.5,45.5 Z"/></g>
<g><path style="opacity:0.192" fill="#898989" d="M 375.5,48.5 C 377.027,48.427 378.027,49.0937 378.5,50.5C 376.973,50.573 375.973,49.9063 375.5,48.5 Z"/></g>
<g><path style="opacity:0.173" fill="#7f7f7f" d="M 387.5,56.5 C 389.027,56.427 390.027,57.0937 390.5,58.5C 388.973,58.573 387.973,57.9063 387.5,56.5 Z"/></g>
<g><path style="opacity:0.278" fill="#737373" d="M 394.5,61.5 C 396.749,62.0798 398.415,63.4131 399.5,65.5C 397.251,64.9202 395.585,63.5869 394.5,61.5 Z"/></g>
<g><path style="opacity:0.42" fill="#696969" d="M 80.5,65.5 C 78.4309,68.5725 75.7642,70.9059 72.5,72.5C 74.5691,69.4275 77.2358,67.0941 80.5,65.5 Z"/></g>
<g><path style="opacity:0.243" fill="#8d8d8d" d="M 403.5,69.5 C 405.027,69.427 406.027,70.0937 406.5,71.5C 404.973,71.573 403.973,70.9063 403.5,69.5 Z"/></g>
<g><path style="opacity:0.31" fill="#818181" d="M 429.5,75.5 C 431.587,76.5846 432.92,78.2512 433.5,80.5C 431.413,79.4154 430.08,77.7488 429.5,75.5 Z"/></g>
<g><path style="opacity:0.31" fill="#727272" d="M 72.5,72.5 C 70.9059,75.7642 68.5725,78.4309 65.5,80.5C 67.0941,77.2358 69.4275,74.5691 72.5,72.5 Z"/></g>
<g><path style="opacity:0.894" fill="#636363" d="M 82.5,81.5 C 81.8333,82.8333 80.8333,83.8333 79.5,84.5C 79.3433,83.1266 79.51,81.7932 80,80.5C 80.6708,81.2524 81.5041,81.5858 82.5,81.5 Z"/></g>
<g><path style="opacity:0.979" fill="#121212" d="M 306.5,215.5 C 305.094,215.973 304.427,216.973 304.5,218.5C 303.5,220.167 302.167,221.5 300.5,222.5C 299.5,222.833 298.833,223.5 298.5,224.5C 297.5,226.167 296.167,227.5 294.5,228.5C 292.973,228.427 291.973,229.094 291.5,230.5C 289.606,231.048 287.94,232.048 286.5,233.5C 287.32,235.111 288.654,235.778 290.5,235.5C 306.472,242.919 319.972,253.586 331,267.5C 347.159,289.294 356.659,313.794 359.5,341C 359.695,343.352 359.028,345.352 357.5,347C 353.064,349.109 348.397,350.276 343.5,350.5C 339.21,350.198 335.21,350.864 331.5,352.5C 293.558,355.319 255.558,356.153 217.5,355C 216.376,354.751 215.376,354.251 214.5,353.5C 222.732,344.703 228.066,334.37 230.5,322.5C 232.048,318.966 232.714,315.133 232.5,311C 232.674,306.558 232.007,302.391 230.5,298.5C 230.829,295.772 230.163,293.438 228.5,291.5C 225.951,285.408 222.618,279.741 218.5,274.5C 218.262,272.596 217.262,271.262 215.5,270.5C 211.143,267.136 206.809,263.802 202.5,260.5C 201.313,258.025 199.313,257.025 196.5,257.5C 194.597,257.204 192.93,256.537 191.5,255.5C 192.415,253.246 193.748,251.246 195.5,249.5C 197.8,247.016 200.467,245.016 203.5,243.5C 205.027,243.573 206.027,242.906 206.5,241.5C 208.027,241.573 209.027,240.906 209.5,239.5C 210.514,238.326 211.847,237.66 213.5,237.5C 216.049,237.613 218.382,236.946 220.5,235.5C 221.941,233.167 221.275,231.834 218.5,231.5C 217.738,229.738 216.404,228.738 214.5,228.5C 213.738,226.738 212.404,225.738 210.5,225.5C 208.833,224.5 207.5,223.167 206.5,221.5C 205.864,219.205 204.531,217.539 202.5,216.5C 200,213.506 198,210.173 196.5,206.5C 195.588,201.421 193.921,196.755 191.5,192.5C 188.662,182.28 188.996,172.28 192.5,162.5C 193.924,160.485 194.59,158.152 194.5,155.5C 194.796,153.597 195.463,151.93 196.5,150.5C 197.906,150.027 198.573,149.027 198.5,147.5C 206.128,133.542 217.461,123.875 232.5,118.5C 235.152,118.59 237.485,117.924 239.5,116.5C 266.335,111.281 288.502,119.281 306,140.5C 322.432,165.446 322.599,190.446 306.5,215.5 Z M 263.5,128.5 C 265.302,129.458 267.302,130.125 269.5,130.5C 273.5,132.167 277.5,133.833 281.5,135.5C 281.973,136.906 282.973,137.573 284.5,137.5C 287.167,140.833 290.167,143.833 293.5,146.5C 298.545,153.587 302.212,161.254 304.5,169.5C 304.674,176.535 304.341,183.535 303.5,190.5C 301.777,195.613 299.777,200.613 297.5,205.5C 295.738,206.262 294.738,207.596 294.5,209.5C 290.833,212.5 287.5,215.833 284.5,219.5C 282.973,219.427 281.973,220.094 281.5,221.5C 279.77,222.026 278.436,223.026 277.5,224.5C 274.561,226.703 272.895,229.703 272.5,233.5C 273.028,235.336 273.694,237.003 274.5,238.5C 274.5,238.833 274.5,239.167 274.5,239.5C 274.427,241.027 275.094,242.027 276.5,242.5C 277.262,244.262 278.596,245.262 280.5,245.5C 283.979,247.403 287.646,249.07 291.5,250.5C 291.973,251.906 292.973,252.573 294.5,252.5C 314.313,265.496 328.479,283.162 337,305.5C 340.012,313.034 342.512,320.701 344.5,328.5C 344.813,331.247 344.48,333.914 343.5,336.5C 340.689,337.08 338.023,337.746 335.5,338.5C 323.321,339.13 311.321,340.13 299.5,341.5C 283.993,341.469 268.493,341.802 253,342.5C 247.784,342.494 242.951,341.827 238.5,340.5C 240.806,336.915 242.139,332.915 242.5,328.5C 243.887,326.123 244.721,323.457 245,320.5C 245.819,314.319 245.653,308.319 244.5,302.5C 244.26,297.88 243.26,293.547 241.5,289.5C 240.679,285.873 239.346,282.54 237.5,279.5C 237.573,277.973 236.906,276.973 235.5,276.5C 235.672,275.508 235.338,274.842 234.5,274.5C 234.573,272.973 233.906,271.973 232.5,271.5C 232.573,269.973 231.906,268.973 230.5,268.5C 229.92,266.251 228.587,264.585 226.5,263.5C 226.262,261.596 225.262,260.262 223.5,259.5C 220.853,257.189 218.186,254.856 215.5,252.5C 220.681,249.117 226.014,246.117 231.5,243.5C 232.906,243.027 233.573,242.027 233.5,240.5C 236.09,236.196 236.09,231.863 233.5,227.5C 231.706,224.255 229.039,221.921 225.5,220.5C 225.167,219.5 224.5,218.833 223.5,218.5C 213.88,210.91 207.546,201.244 204.5,189.5C 204.327,180.805 204.66,172.138 205.5,163.5C 210.596,149.401 219.929,139.068 233.5,132.5C 236.018,131.736 238.351,130.736 240.5,129.5C 248.132,128.642 255.799,128.309 263.5,128.5 Z"/></g>
<g><path style="opacity:0.467" fill="#595959" d="M 239.5,116.5 C 237.485,117.924 235.152,118.59 232.5,118.5C 234.515,117.076 236.848,116.41 239.5,116.5 Z"/></g>
<g><path style="opacity:0.518" fill="#878787" d="M 263.5,128.5 C 266.01,128.054 268.01,128.72 269.5,130.5C 267.302,130.125 265.302,129.458 263.5,128.5 Z"/></g>
<g><path style="opacity:0.773" fill="#707070" d="M 240.5,129.5 C 238.351,130.736 236.018,131.736 233.5,132.5C 235.03,129.979 237.364,128.979 240.5,129.5 Z"/></g>
<g><path style="opacity:0.212" fill="#777777" d="M 281.5,135.5 C 283.027,135.427 284.027,136.094 284.5,137.5C 282.973,137.573 281.973,136.906 281.5,135.5 Z"/></g>
<g><path style="opacity:0.545" fill="#828282" d="M 284.5,137.5 C 288.5,139.5 291.5,142.5 293.5,146.5C 290.167,143.833 287.167,140.833 284.5,137.5 Z"/></g>
<g><path style="opacity:0.122" fill="#a3a3a3" d="M 198.5,147.5 C 198.573,149.027 197.906,150.027 196.5,150.5C 196.427,148.973 197.094,147.973 198.5,147.5 Z"/></g>
<g><path style="opacity:0.478" fill="#737373" d="M 194.5,155.5 C 194.59,158.152 193.924,160.485 192.5,162.5C 192.41,159.848 193.076,157.515 194.5,155.5 Z"/></g>
<g><path style="opacity:0.122" fill="#909090" d="M 304.5,169.5 C 305.165,172.314 305.498,175.314 305.5,178.5C 305.722,182.797 305.055,186.797 303.5,190.5C 304.341,183.535 304.674,176.535 304.5,169.5 Z"/></g>
<g><path style="opacity:0.042" fill="#dbdbdb" d="M 205.5,163.5 C 204.66,172.138 204.327,180.805 204.5,189.5C 203.835,186.016 203.501,182.349 203.5,178.5C 203.287,173.233 203.954,168.233 205.5,163.5 Z"/></g>
<g><path style="opacity:0.239" fill="#656565" d="M 9.5,179.5 C 9.59047,182.152 8.92381,184.485 7.5,186.5C 7.40953,183.848 8.07619,181.515 9.5,179.5 Z"/></g>
<g><path style="opacity:0.18" fill="#686868" d="M 7.5,186.5 C 7.70621,189.495 7.03954,192.162 5.5,194.5C 5.56513,191.572 6.2318,188.905 7.5,186.5 Z"/></g>
<g><path style="opacity:0.373" fill="#858585" d="M 191.5,192.5 C 193.921,196.755 195.588,201.421 196.5,206.5C 194.065,202.201 192.398,197.534 191.5,192.5 Z"/></g>
<g><path style="opacity:0.161" fill="#909090" d="M 20.5,186.5 C 17.7147,199.885 15.3813,213.218 13.5,226.5C 13.5411,212.642 15.8744,199.309 20.5,186.5 Z"/></g>
<g><path style="opacity:0.165" fill="#8b8b8b" d="M 479.5,191.5 C 482.938,199.694 484.605,208.361 484.5,217.5C 482.851,208.957 481.184,200.29 479.5,191.5 Z"/></g>
<g><path style="opacity:0.204" fill="#959595" d="M 297.5,205.5 C 297.262,207.404 296.262,208.738 294.5,209.5C 294.738,207.596 295.738,206.262 297.5,205.5 Z"/></g>
<g><path style="opacity:0.22" fill="#959595" d="M 294.5,209.5 C 292.167,213.833 288.833,217.167 284.5,219.5C 287.5,215.833 290.833,212.5 294.5,209.5 Z"/></g>
<g><path style="opacity:0.008" fill="#d0d0d0" d="M 306.5,215.5 C 306.573,217.027 305.906,218.027 304.5,218.5C 304.427,216.973 305.094,215.973 306.5,215.5 Z"/></g>
<g><path style="opacity:0.184" fill="#989898" d="M 202.5,216.5 C 204.531,217.539 205.864,219.205 206.5,221.5C 204.457,220.421 203.124,218.754 202.5,216.5 Z"/></g>
<g><path style="opacity:0.212" fill="#a7a7a7" d="M 223.5,218.5 C 224.5,218.833 225.167,219.5 225.5,220.5C 224.167,220.5 223.5,219.833 223.5,218.5 Z"/></g>
<g><path style="opacity:0.208" fill="#979797" d="M 284.5,219.5 C 284.027,220.906 283.027,221.573 281.5,221.5C 281.973,220.094 282.973,219.427 284.5,219.5 Z"/></g>
<g><path style="opacity:0.004" fill="#c0c0c0" d="M 300.5,222.5 C 300.5,223.833 299.833,224.5 298.5,224.5C 298.833,223.5 299.5,222.833 300.5,222.5 Z"/></g>
<g><path style="opacity:0.322" fill="#959595" d="M 210.5,225.5 C 212.404,225.738 213.738,226.738 214.5,228.5C 212.596,228.262 211.262,227.262 210.5,225.5 Z"/></g>
<g><path style="opacity:0.267" fill="#7f7f7f" d="M 214.5,228.5 C 216.404,228.738 217.738,229.738 218.5,231.5C 216.596,231.262 215.262,230.262 214.5,228.5 Z"/></g>
<g><path style="opacity:0.016" fill="#cecece" d="M 294.5,228.5 C 294.027,229.906 293.027,230.573 291.5,230.5C 291.973,229.094 292.973,228.427 294.5,228.5 Z"/></g>
<g><path style="opacity:0.169" fill="#a9a9a9" d="M 233.5,227.5 C 236.09,231.863 236.09,236.196 233.5,240.5C 234.833,236.167 234.833,231.833 233.5,227.5 Z"/></g>
<g><path style="opacity:0.498" fill="#868686" d="M 277.5,224.5 C 275.042,228.783 274.042,233.449 274.5,238.5C 273.694,237.003 273.028,235.336 272.5,233.5C 272.895,229.703 274.561,226.703 277.5,224.5 Z"/></g>
<g><path style="opacity:0.169" fill="#b5b5b5" d="M 291.5,230.5 C 289.599,231.935 289.266,233.602 290.5,235.5C 288.654,235.778 287.32,235.111 286.5,233.5C 287.94,232.048 289.606,231.048 291.5,230.5 Z"/></g>
<g><path style="opacity:0.718" fill="#565656" d="M 218.5,231.5 C 221.275,231.834 221.941,233.167 220.5,235.5C 218.382,236.946 216.049,237.613 213.5,237.5C 215.435,236.19 217.435,234.857 219.5,233.5C 219.137,232.817 218.804,232.15 218.5,231.5 Z"/></g>
<g><path style="opacity:0.373" fill="#8f8f8f" d="M 209.5,239.5 C 209.027,240.906 208.027,241.573 206.5,241.5C 206.973,240.094 207.973,239.427 209.5,239.5 Z"/></g>
<g><path style="opacity:0.016" fill="#c5c5c5" d="M 274.5,239.5 C 275.906,239.973 276.573,240.973 276.5,242.5C 275.094,242.027 274.427,241.027 274.5,239.5 Z"/></g>
<g><path style="opacity:0.506" fill="#787878" d="M 206.5,241.5 C 206.027,242.906 205.027,243.573 203.5,243.5C 203.973,242.094 204.973,241.427 206.5,241.5 Z"/></g>
<g><path style="opacity:0.082" fill="#c3c3c3" d="M 233.5,240.5 C 233.573,242.027 232.906,243.027 231.5,243.5C 231.427,241.973 232.094,240.973 233.5,240.5 Z"/></g>
<g><path style="opacity:0.271" fill="#7f7f7f" d="M 276.5,242.5 C 278.404,242.738 279.738,243.738 280.5,245.5C 278.596,245.262 277.262,244.262 276.5,242.5 Z"/></g>
<g><path style="opacity:0.482" fill="#666666" d="M 13.5,228.5 C 12.2616,243.164 12.2616,257.831 13.5,272.5C 11.9778,265.061 11.3111,257.394 11.5,249.5C 11.6667,244.167 11.8333,238.833 12,233.5C 12.1981,231.618 12.6981,229.952 13.5,228.5 Z"/></g>
<g><path style="opacity:0.45" fill="#636363" d="M 485.5,228.5 C 486.302,229.952 486.802,231.618 487,233.5C 487.167,238.833 487.333,244.167 487.5,249.5C 487.689,257.394 487.022,265.061 485.5,272.5C 486.75,257.831 486.75,243.165 485.5,228.5 Z"/></g>
<g><path style="opacity:0.141" fill="#b0b0b0" d="M 291.5,250.5 C 293.027,250.427 294.027,251.094 294.5,252.5C 292.973,252.573 291.973,251.906 291.5,250.5 Z"/></g>
<g><path style="opacity:0.369" fill="#848484" d="M 195.5,249.5 C 193.748,251.246 192.415,253.246 191.5,255.5C 189.972,255.483 189.472,254.816 190,253.5C 191.451,251.536 193.284,250.203 195.5,249.5 Z"/></g>
<g><path style="opacity:0.989" fill="#121212" d="M 165.5,256.5 C 178.577,255.853 190.91,258.52 202.5,264.5C 202.973,265.906 203.973,266.573 205.5,266.5C 206.262,268.262 207.596,269.262 209.5,269.5C 209.833,271.833 211.167,273.167 213.5,273.5C 213.427,275.027 214.094,276.027 215.5,276.5C 219.754,280.662 222.754,285.662 224.5,291.5C 224.723,295.162 225.723,298.495 227.5,301.5C 230.905,326.186 222.238,345.353 201.5,359C 182.473,368.966 163.473,368.966 144.5,359C 141.06,356.958 138.06,354.458 135.5,351.5C 135.027,350.094 134.027,349.427 132.5,349.5C 124.399,341.552 119.733,331.885 118.5,320.5C 118.309,312.799 118.642,305.132 119.5,297.5C 119.807,292.57 121.473,288.237 124.5,284.5C 125.906,284.027 126.573,283.027 126.5,281.5C 131.316,273.185 137.983,266.685 146.5,262C 148.743,260.864 151.076,260.03 153.5,259.5C 155.898,259.741 157.898,259.074 159.5,257.5C 161.379,256.659 163.379,256.325 165.5,256.5 Z M 197.5,277.5 C 200.167,280.833 203.167,283.833 206.5,286.5C 207.263,288.368 208.263,290.035 209.5,291.5C 211.149,294.456 212.483,297.456 213.5,300.5C 213.739,304.842 214.073,309.176 214.5,313.5C 213.475,316.974 212.808,320.64 212.5,324.5C 211.662,324.842 211.328,325.508 211.5,326.5C 208.508,331.162 205.508,335.828 202.5,340.5C 201.167,341.167 200.167,342.167 199.5,343.5C 197.596,343.738 196.262,344.738 195.5,346.5C 191.978,348.426 188.312,350.093 184.5,351.5C 177.543,352.386 170.543,352.72 163.5,352.5C 159.576,350.853 155.576,349.186 151.5,347.5C 151.027,346.094 150.027,345.427 148.5,345.5C 148.167,344.5 147.5,343.833 146.5,343.5C 144.5,340.833 142.167,338.5 139.5,336.5C 139.262,334.596 138.262,333.262 136.5,332.5C 129.587,317.625 129.92,302.958 137.5,288.5C 138.906,288.027 139.573,287.027 139.5,285.5C 142.631,282.871 145.631,280.038 148.5,277C 151.767,274.87 155.1,273.037 158.5,271.5C 172.416,267.916 185.416,269.916 197.5,277.5 Z"/></g>
<g><path style="opacity:0.224" fill="#aeaeae" d="M 165.5,256.5 C 174.895,254.841 184.228,255.674 193.5,259C 196.898,260.357 199.898,262.19 202.5,264.5C 190.91,258.52 178.577,255.853 165.5,256.5 Z"/></g>
<g><path style="opacity:0.835" fill="#5c5c5c" d="M 196.5,257.5 C 199.313,257.025 201.313,258.025 202.5,260.5C 200.456,259.492 198.456,258.492 196.5,257.5 Z"/></g>
<g><path style="opacity:0.502" fill="#777777" d="M 159.5,257.5 C 157.898,259.074 155.898,259.741 153.5,259.5C 155.214,258.262 157.214,257.595 159.5,257.5 Z"/></g>
<g><path style="opacity:0.176" fill="#b7b7b7" d="M 223.5,259.5 C 225.262,260.262 226.262,261.596 226.5,263.5C 224.738,262.738 223.738,261.404 223.5,259.5 Z"/></g>
<g><path style="opacity:0.122" fill="#adadad" d="M 202.5,264.5 C 204.027,264.427 205.027,265.094 205.5,266.5C 203.973,266.573 202.973,265.906 202.5,264.5 Z"/></g>
<g><path style="opacity:0.012" fill="#bcbcbc" d="M 205.5,266.5 C 207.404,266.738 208.738,267.738 209.5,269.5C 207.596,269.262 206.262,268.262 205.5,266.5 Z"/></g>
<g><path style="opacity:0.176" fill="#858585" d="M 226.5,263.5 C 228.587,264.585 229.92,266.251 230.5,268.5C 228.413,267.415 227.08,265.749 226.5,263.5 Z"/></g>
<g><path style="opacity:0.443" fill="#7b7b7b" d="M 209.5,269.5 C 211.167,270.5 212.5,271.833 213.5,273.5C 211.167,273.167 209.833,271.833 209.5,269.5 Z"/></g>
<g><path style="opacity:0.196" fill="#848484" d="M 230.5,268.5 C 231.906,268.973 232.573,269.973 232.5,271.5C 231.094,271.027 230.427,270.027 230.5,268.5 Z"/></g>
<g><path style="opacity:0.004" fill="#bbbbbb" d="M 215.5,270.5 C 217.262,271.262 218.262,272.596 218.5,274.5C 216.738,273.738 215.738,272.404 215.5,270.5 Z"/></g>
<g><path style="opacity:0.169" fill="#a1a1a1" d="M 197.5,277.5 C 185.416,269.916 172.416,267.916 158.5,271.5C 171.217,266.793 183.551,267.959 195.5,275C 196.381,275.708 197.047,276.542 197.5,277.5 Z"/></g>
<g><path style="opacity:0.188" fill="#7c7c7c" d="M 232.5,271.5 C 233.906,271.973 234.573,272.973 234.5,274.5C 233.094,274.027 232.427,273.027 232.5,271.5 Z"/></g>
<g><path style="opacity:0.282" fill="#838383" d="M 213.5,273.5 C 214.906,273.973 215.573,274.973 215.5,276.5C 214.094,276.027 213.427,275.027 213.5,273.5 Z"/></g>
<g><path style="opacity:0.408" fill="#bababa" d="M 197.5,277.5 C 201.5,279.5 204.5,282.5 206.5,286.5C 203.167,283.833 200.167,280.833 197.5,277.5 Z"/></g>
<g><path style="opacity:0.122" fill="#8c8c8c" d="M 235.5,276.5 C 236.906,276.973 237.573,277.973 237.5,279.5C 236.094,279.027 235.427,278.027 235.5,276.5 Z"/></g>
<g><path style="opacity:0.529" fill="#838383" d="M 13.5,272.5 C 14.9093,281.022 16.2426,289.688 17.5,298.5C 15.9318,296.189 15.0984,293.522 15,290.5C 14.0368,284.535 13.5368,278.535 13.5,272.5 Z"/></g>
<g><path style="opacity:0.498" fill="#848484" d="M 485.5,272.5 C 485.463,278.535 484.963,284.535 484,290.5C 483.902,293.522 483.068,296.189 481.5,298.5C 482.757,289.688 484.091,281.022 485.5,272.5 Z"/></g>
<g><path style="opacity:0.137" fill="#838383" d="M 126.5,281.5 C 126.573,283.027 125.906,284.027 124.5,284.5C 124.427,282.973 125.094,281.973 126.5,281.5 Z"/></g>
<g><path style="opacity:0.255" fill="#9f9fa1" d="M 179.5,285.5 C 174.533,284.962 169.866,285.629 165.5,287.5C 165.5,287.167 165.5,286.833 165.5,286.5C 165.611,285.883 165.944,285.383 166.5,285C 171.02,284.186 175.354,284.353 179.5,285.5 Z"/></g>
<g><path style="opacity:0.024" fill="#c8c8c8" d="M 139.5,285.5 C 139.573,287.027 138.906,288.027 137.5,288.5C 137.427,286.973 138.094,285.973 139.5,285.5 Z"/></g>
<g><path style="opacity:0.839" fill="#777777" d="M 206.5,286.5 C 207.552,286.351 208.552,286.517 209.5,287C 209.034,288.299 209.034,289.799 209.5,291.5C 209.034,289.799 209.034,288.299 209.5,287C 208.552,286.517 207.552,286.351 206.5,286.5 Z"/></g>
<g><path style="opacity:0.125" fill="#cacbcc" d="M 180.5,287.5 C 181.487,292.305 181.821,297.305 181.5,302.5C 187.084,302.255 192.417,302.922 197.5,304.5C 191.833,304.5 186.167,304.5 180.5,304.5C 180.5,298.833 180.5,293.167 180.5,287.5 Z"/></g>
<g><path style="opacity:0.424" fill="#a1a1a1" d="M 241.5,289.5 C 243.26,293.547 244.26,297.88 244.5,302.5C 242.74,298.453 241.74,294.12 241.5,289.5 Z"/></g>
<g><path style="opacity:0.463" fill="#808080" d="M 224.5,291.5 C 226.277,294.505 227.277,297.838 227.5,301.5C 225.723,298.495 224.723,295.162 224.5,291.5 Z"/></g>
<g><path style="opacity:0.176" fill="#767676" d="M 228.5,291.5 C 230.163,293.438 230.829,295.772 230.5,298.5C 229.388,296.401 228.721,294.067 228.5,291.5 Z"/></g>
<g><path style="opacity:1" fill="#121117" d="M 179.5,285.5 C 180.338,285.842 180.672,286.508 180.5,287.5C 180.5,293.167 180.5,298.833 180.5,304.5C 186.167,304.5 191.833,304.5 197.5,304.5C 197.5,308.833 197.5,313.167 197.5,317.5C 192.695,318.487 187.695,318.821 182.5,318.5C 180.55,323.735 179.883,329.402 180.5,335.5C 180.423,336.75 179.756,337.583 178.5,338C 173.771,338.996 169.271,338.496 165,336.5C 164.501,330.509 164.334,324.509 164.5,318.5C 159.156,318.666 153.823,318.499 148.5,318C 146.941,316.004 146.274,313.671 146.5,311C 146.667,309.167 146.833,307.333 147,305.5C 147.383,304.944 147.883,304.611 148.5,304.5C 154.167,304.5 159.833,304.5 165.5,304.5C 165.5,298.833 165.5,293.167 165.5,287.5C 169.866,285.629 174.533,284.962 179.5,285.5 Z"/></g>
<g><path style="opacity:0.104" fill="#c5c6c6" d="M 165.5,286.5 C 165.5,286.833 165.5,287.167 165.5,287.5C 165.5,293.167 165.5,298.833 165.5,304.5C 159.833,304.5 154.167,304.5 148.5,304.5C 153.681,303.685 159.014,303.018 164.5,302.5C 164.179,296.974 164.512,291.64 165.5,286.5 Z"/></g>
<g><path style="opacity:0.414" fill="#7c7c7c" d="M 119.5,297.5 C 118.642,305.132 118.309,312.799 118.5,320.5C 117.346,314.013 117.179,307.346 118,300.5C 118.232,299.263 118.732,298.263 119.5,297.5 Z"/></g>
<g><path style="opacity:0.204" fill="#838383" d="M 213.5,300.5 C 215.428,305.767 215.761,311.1 214.5,316.5C 214.5,315.5 214.5,314.5 214.5,313.5C 214.073,309.176 213.739,304.842 213.5,300.5 Z"/></g>
<g><path style="opacity:0.205" fill="#777777" d="M 230.5,298.5 C 232.007,302.391 232.674,306.558 232.5,311C 232.714,315.133 232.048,318.966 230.5,322.5C 231.723,314.507 231.723,306.507 230.5,298.5 Z"/></g>
<g><path style="opacity:0.471" fill="#8f8f8f" d="M 197.5,304.5 C 200.167,308.833 200.167,313.167 197.5,317.5C 197.5,313.167 197.5,308.833 197.5,304.5 Z"/></g>
<g><path style="opacity:0.154" fill="#cecece" d="M 244.5,302.5 C 245.653,308.319 245.819,314.319 245,320.5C 244.721,323.457 243.887,326.123 242.5,328.5C 244.006,319.907 244.673,311.241 244.5,302.5 Z"/></g>
<g><path style="opacity:0.306" fill="#777777" d="M 20.5,312.5 C 21.9238,314.515 22.5905,316.848 22.5,319.5C 21.0762,317.485 20.4095,315.152 20.5,312.5 Z"/></g>
<g><path style="opacity:0.388" fill="#777777" d="M 478.5,312.5 C 478.59,315.152 477.924,317.485 476.5,319.5C 476.41,316.848 477.076,314.515 478.5,312.5 Z"/></g>
<g><path style="opacity:0.059" fill="#cacaca" d="M 214.5,313.5 C 214.5,314.5 214.5,315.5 214.5,316.5C 214.889,319.553 214.223,322.22 212.5,324.5C 212.808,320.64 213.475,316.974 214.5,313.5 Z"/></g>
<g><path style="opacity:0.482" fill="#575757" d="M 22.5,319.5 C 23.7384,321.214 24.405,323.214 24.5,325.5C 22.9261,323.898 22.2594,321.898 22.5,319.5 Z"/></g>
<g><path style="opacity:0.541" fill="#575757" d="M 476.5,319.5 C 476.741,321.898 476.074,323.898 474.5,325.5C 474.595,323.214 475.262,321.214 476.5,319.5 Z"/></g>
<g><path style="opacity:0.384" fill="#6f6f6f" d="M 24.5,325.5 C 26.0652,327.509 27.0652,329.843 27.5,332.5C 25.1663,330.824 24.1663,328.491 24.5,325.5 Z"/></g>
<g><path style="opacity:0.114" fill="#e4e5e6" d="M 182.5,318.5 C 181.874,324.268 181.207,329.934 180.5,335.5C 179.883,329.402 180.55,323.735 182.5,318.5 Z"/></g>
<g><path style="opacity:0.239" fill="#a9a9a9" d="M 136.5,332.5 C 138.262,333.262 139.262,334.596 139.5,336.5C 137.738,335.738 136.738,334.404 136.5,332.5 Z"/></g>
<g><path style="opacity:0.076" fill="#c0c0c0" d="M 344.5,328.5 C 348.017,337.325 345.017,340.659 335.5,338.5C 338.023,337.746 340.689,337.08 343.5,336.5C 344.48,333.914 344.813,331.247 344.5,328.5 Z"/></g>
<g><path style="opacity:0.188" fill="#c4c4c4" d="M 211.5,326.5 C 210.111,332.218 207.111,336.885 202.5,340.5C 205.508,335.828 208.508,331.162 211.5,326.5 Z"/></g>
<g><path style="opacity:0.247" fill="#b3b3b3" d="M 139.5,336.5 C 142.167,338.5 144.5,340.833 146.5,343.5C 143.167,342.167 140.833,339.833 139.5,336.5 Z"/></g>
<g><path style="opacity:0.171" fill="#868686" d="M 238.5,340.5 C 242.951,341.827 247.784,342.494 253,342.5C 268.493,341.802 283.993,341.469 299.5,341.5C 278.685,343.223 257.685,343.723 236.5,343C 237.066,342.005 237.733,341.172 238.5,340.5 Z"/></g>
<g><path style="opacity:0.196" fill="#969696" d="M 199.5,343.5 C 198.738,345.262 197.404,346.262 195.5,346.5C 196.262,344.738 197.596,343.738 199.5,343.5 Z"/></g>
<g><path style="opacity:0.604" fill="#818181" d="M 31.5,342.5 C 32.6737,343.514 33.3404,344.847 33.5,346.5C 31.8235,345.817 31.1568,344.483 31.5,342.5 Z"/></g>
<g><path style="opacity:0.114" fill="#a9a9a9" d="M 148.5,345.5 C 150.027,345.427 151.027,346.094 151.5,347.5C 149.973,347.573 148.973,346.906 148.5,345.5 Z"/></g>
<g><path style="opacity:0.196" fill="#939393" d="M 132.5,349.5 C 134.027,349.427 135.027,350.094 135.5,351.5C 133.973,351.573 132.973,350.906 132.5,349.5 Z"/></g>
<g><path style="opacity:0.102" fill="#7a7a7a" d="M 343.5,350.5 C 339.705,351.617 335.705,352.283 331.5,352.5C 335.21,350.864 339.21,350.198 343.5,350.5 Z"/></g>
<g><path style="opacity:0.124" fill="#888888" d="M 184.5,351.5 C 184.082,352.222 183.416,352.722 182.5,353C 175.986,353.82 169.653,353.653 163.5,352.5C 170.543,352.72 177.543,352.386 184.5,351.5 Z"/></g>
<g><path style="opacity:0.086" fill="#d2d2d2" d="M 462.5,353.5 C 462.34,355.153 461.674,356.486 460.5,357.5C 460.229,355.62 460.896,354.287 462.5,353.5 Z"/></g>
<g><path style="opacity:0.129" fill="#d6d6d6" d="M 36.5,353.5 C 38.873,355.579 40.2064,358.246 40.5,361.5C 38.659,359.151 37.3257,356.485 36.5,353.5 Z"/></g>
<g><path style="opacity:0.106" fill="#cccccc" d="M 460.5,357.5 C 460.34,359.153 459.674,360.486 458.5,361.5C 458.229,359.62 458.896,358.287 460.5,357.5 Z"/></g>
<g><path style="opacity:0.188" fill="#c5c5c5" d="M 40.5,361.5 C 41.9063,361.973 42.573,362.973 42.5,364.5C 41.0937,364.027 40.427,363.027 40.5,361.5 Z"/></g>
<g><path style="opacity:0.192" fill="#c6c6c6" d="M 44.5,368.5 C 45.9063,368.973 46.573,369.973 46.5,371.5C 45.0937,371.027 44.427,370.027 44.5,368.5 Z"/></g>
<g><path style="opacity:0.2" fill="#b7b7b7" d="M 47.5,373.5 C 48.9063,373.973 49.573,374.973 49.5,376.5C 48.0937,376.027 47.427,375.027 47.5,373.5 Z"/></g>
<g><path style="opacity:0.773" fill="#6d6d6d" d="M 451.5,373.5 C 451.408,375.848 450.408,377.514 448.5,378.5C 448.75,376.326 449.75,374.659 451.5,373.5 Z"/></g>
<g><path style="opacity:0.169" fill="#cbcbcb" d="M 49.5,376.5 C 50.9063,376.973 51.573,377.973 51.5,379.5C 50.0937,379.027 49.427,378.027 49.5,376.5 Z"/></g>
<g><path style="opacity:0.145" fill="#a2a2a2" d="M 448.5,378.5 C 448.573,380.027 447.906,381.027 446.5,381.5C 446.427,379.973 447.094,378.973 448.5,378.5 Z"/></g>
<g><path style="opacity:0.145" fill="#d4d4d4" d="M 51.5,379.5 C 52.9063,379.973 53.573,380.973 53.5,382.5C 52.0937,382.027 51.427,381.027 51.5,379.5 Z"/></g>
<g><path style="opacity:0.259" fill="#9f9f9f" d="M 446.5,381.5 C 446.573,383.027 445.906,384.027 444.5,384.5C 444.427,382.973 445.094,381.973 446.5,381.5 Z"/></g>
<g><path style="opacity:0.176" fill="#c2c2c2" d="M 53.5,382.5 C 54.9063,382.973 55.573,383.973 55.5,385.5C 54.0937,385.027 53.427,384.027 53.5,382.5 Z"/></g>
<g><path style="opacity:0.149" fill="#8e8e8e" d="M 444.5,384.5 C 444.573,386.027 443.906,387.027 442.5,387.5C 442.427,385.973 443.094,384.973 444.5,384.5 Z"/></g>
<g><path style="opacity:0.212" fill="#b5b5b5" d="M 55.5,385.5 C 56.9063,385.973 57.573,386.973 57.5,388.5C 56.0937,388.027 55.427,387.027 55.5,385.5 Z"/></g>
<g><path style="opacity:0.396" fill="#adadad" d="M 57.5,388.5 C 59.2624,389.262 60.2624,390.596 60.5,392.5C 58.7376,391.738 57.7376,390.404 57.5,388.5 Z"/></g>
<g><path style="opacity:0.184" fill="#929292" d="M 442.5,387.5 C 442.262,389.404 441.262,390.738 439.5,391.5C 439.738,389.596 440.738,388.262 442.5,387.5 Z"/></g>
<g><path style="opacity:0.4" fill="#b5b5b5" d="M 60.5,392.5 C 62.5869,393.585 63.9202,395.251 64.5,397.5C 62.4131,396.415 61.0798,394.749 60.5,392.5 Z"/></g>
<g><path style="opacity:0.231" fill="#9c9c9c" d="M 439.5,391.5 C 438.92,393.749 437.587,395.415 435.5,396.5C 436.08,394.251 437.413,392.585 439.5,391.5 Z"/></g>
<g><path style="opacity:0.369" fill="#929292" d="M 435.5,396.5 C 435.262,398.404 434.262,399.738 432.5,400.5C 432.738,398.596 433.738,397.262 435.5,396.5 Z"/></g>
<g><path style="opacity:0.353" fill="#bababa" d="M 64.5,397.5 C 66.914,398.911 68.5806,400.911 69.5,403.5C 67.086,402.089 65.4194,400.089 64.5,397.5 Z"/></g>
<g><path style="opacity:0.337" fill="#8c8c8c" d="M 430.5,402.5 C 430.262,404.404 429.262,405.738 427.5,406.5C 427.738,404.596 428.738,403.262 430.5,402.5 Z"/></g>
<g><path style="opacity:0.416" fill="#bababa" d="M 69.5,403.5 C 72.9031,405.9 75.5698,408.9 77.5,412.5C 74.0969,410.1 71.4302,407.1 69.5,403.5 Z"/></g>
<g><path style="opacity:0.016" fill="#bababa" d="M 90.5,425.5 C 92.7488,426.08 94.4154,427.413 95.5,429.5C 93.2512,428.92 91.5846,427.587 90.5,425.5 Z"/></g>
<g><path style="opacity:0.361" fill="#888888" d="M 75.5,429.5 C 78.0892,430.419 80.0892,432.086 81.5,434.5C 78.9108,433.581 76.9108,431.914 75.5,429.5 Z"/></g>
<g><path style="opacity:0.012" fill="#c1c1c1" d="M 97.5,431.5 C 99.4044,431.738 100.738,432.738 101.5,434.5C 99.5956,434.262 98.2623,433.262 97.5,431.5 Z"/></g>
<g><path style="opacity:0.22" fill="#9f9f9f" d="M 101.5,434.5 C 103.754,435.124 105.421,436.457 106.5,438.5C 104.205,437.864 102.539,436.531 101.5,434.5 Z"/></g>
<g><path style="opacity:0.576" fill="#6a6a6a" d="M 395.5,436.5 C 394.415,438.587 392.749,439.92 390.5,440.5C 391.585,438.413 393.251,437.08 395.5,436.5 Z"/></g>
<g><path style="opacity:0.282" fill="#909090" d="M 106.5,438.5 C 108.23,439.026 109.564,440.026 110.5,441.5C 108.368,441.446 107.035,440.446 106.5,438.5 Z"/></g>
<g><path style="opacity:0.004" fill="#cbcbcb" d="M 110.5,441.5 C 112.027,441.427 113.027,442.094 113.5,443.5C 111.973,443.573 110.973,442.906 110.5,441.5 Z"/></g>
<g><path style="opacity:0.31" fill="#7c7c7c" d="M 91.5,443.5 C 93.0269,443.427 94.0269,444.094 94.5,445.5C 92.9731,445.573 91.9731,444.906 91.5,443.5 Z"/></g>
<g><path style="opacity:0.322" fill="#8b8b8b" d="M 113.5,443.5 C 115.23,444.026 116.564,445.026 117.5,446.5C 115.368,446.446 114.035,445.446 113.5,443.5 Z"/></g>
<g><path style="opacity:0.322" fill="#7d7d7d" d="M 103.5,452.5 C 105.404,452.738 106.738,453.738 107.5,455.5C 105.596,455.262 104.262,454.262 103.5,452.5 Z"/></g>
<g><path style="opacity:0.184" fill="#8d8d8d" d="M 107.5,455.5 C 109.027,455.427 110.027,456.094 110.5,457.5C 108.973,457.573 107.973,456.906 107.5,455.5 Z"/></g>
<g><path style="opacity:0.188" fill="#989898" d="M 113.5,459.5 C 115.027,459.427 116.027,460.094 116.5,461.5C 114.973,461.573 113.973,460.906 113.5,459.5 Z"/></g>
<g><path style="opacity:0.212" fill="#7f7f7f" d="M 118.5,462.5 C 120.027,462.427 121.027,463.094 121.5,464.5C 119.973,464.573 118.973,463.906 118.5,462.5 Z"/></g>
<g><path style="opacity:0.125" fill="#9d9d9d" d="M 132.5,470.5 C 134.027,470.427 135.027,471.094 135.5,472.5C 133.973,472.573 132.973,471.906 132.5,470.5 Z"/></g>
<g><path style="opacity:0.349" fill="#646464" d="M 200.5,481.5 C 205.647,482.396 210.647,483.396 215.5,484.5C 210.785,484.494 206.118,483.994 201.5,483C 200.944,482.617 200.611,482.117 200.5,481.5 Z"/></g>
<g><path style="opacity:0.2" fill="#6a6a6a" d="M 215.5,484.5 C 223.675,484.841 231.675,485.508 239.5,486.5C 237.5,486.5 235.5,486.5 233.5,486.5C 227.25,486.816 221.25,486.15 215.5,484.5 Z"/></g>
<g><path style="opacity:0.518" fill="#4c4c4c" d="M 287.5,483.5 C 286.737,484.268 285.737,484.768 284.5,485C 267.392,487.371 250.392,487.871 233.5,486.5C 235.5,486.5 237.5,486.5 239.5,486.5C 255.577,486.561 271.577,485.561 287.5,483.5 Z"/></g>
</svg>
